<?xml version="1.0" encoding="UTF-8" standalone="no"?>
<!DOCTYPE svg PUBLIC "-//W3C//DTD SVG 1.1//EN" "http://www.w3.org/Graphics/SVG/1.1/DTD/svg11.dtd">
<svg width="100%" height="100%" viewBox="0 0 1138 300" version="1.1" xmlns="http://www.w3.org/2000/svg" xmlns:xlink="http://www.w3.org/1999/xlink" xml:space="preserve" xmlns:serif="http://www.serif.com/" style="fill-rule:evenodd;clip-rule:evenodd;stroke-linejoin:round;stroke-miterlimit:2;">
    <g transform="matrix(1,0,0,1,-1449.42,-56.3537)">
        <circle cx="1587.85" cy="194.79" r="138.437" style="fill:none;"/>
        <clipPath id="_clip1">
            <circle cx="1587.85" cy="194.79" r="138.437"/>
        </clipPath>
        <g clip-path="url(#_clip1)">
            <g transform="matrix(0.0930996,0,0,0.0930996,1371.61,-272.741)">
                <path d="M905,5566C894,5568 848,5577 803,5586C751,5596 720,5607 720,5615C720,5662 805,5880 823,5880C829,5880 890,5861 959,5838L1085,5795L1250,5796L1415,5796L1565,5842C1778,5908 1865,5924 1975,5917C2101,5908 2186,5889 2346,5830C2562,5752 2685,5735 2835,5764C2874,5772 2906,5777 2908,5775C2909,5774 2880,5747 2842,5717C2762,5651 2688,5615 2593,5595C2465,5568 2376,5578 2142,5650C1962,5705 1906,5714 1782,5707C1674,5701 1630,5692 1417,5626C1351,5606 1260,5583 1213,5575C1136,5561 955,5556 905,5566Z" style="fill:rgb(89,110,126);fill-rule:nonzero;"/>
            </g>
            <g transform="matrix(0.0930996,0,0,0.0930996,1371.61,-277.117)">
                <path d="M3495,5621C3462,5629 3377,5656 3307,5681C3146,5740 3056,5754 2954,5737C2912,5731 2876,5727 2874,5730C2871,5732 2908,5764 2956,5801C3023,5852 3060,5872 3122,5892C3218,5922 3324,5924 3420,5898C3634,5838 3645,5836 3756,5836L3867,5836L3893,5769C3940,5647 3942,5654 3858,5633C3762,5609 3574,5603 3495,5621Z" style="fill:rgb(89,110,126);fill-rule:nonzero;"/>
            </g>
            <g transform="matrix(0.0930996,0,0,0.0930996,1371.61,-227.867)">
                <path d="M2575,5344C2537,5352 2433,5384 2345,5414C2100,5498 1978,5513 1795,5483C1746,5475 1704,5470 1702,5472C1694,5480 1847,5590 1903,5617C2016,5670 2152,5682 2281,5649C2322,5639 2414,5607 2485,5580C2736,5483 2885,5475 3160,5543C3331,5585 3454,5596 3571,5578L3655,5566L3738,5482C3783,5436 3820,5391 3820,5383C3820,5372 3808,5368 3778,5366C3683,5363 3620,5372 3510,5404C3313,5463 3207,5460 3010,5393C2818,5328 2710,5316 2575,5344Z" style="fill:rgb(26,46,62);fill-rule:nonzero;"/>
            </g>
            <g transform="matrix(0.0930996,0,0,0.0930996,1371.61,-223.957)">
                <path d="M1055,5351C948,5379 867,5410 862,5424C859,5434 988,5594 1028,5629C1048,5647 1051,5647 1147,5616C1390,5538 1560,5536 1779,5611C1818,5624 1850,5632 1850,5628C1849,5624 1830,5609 1807,5594C1784,5579 1725,5530 1675,5485C1626,5441 1562,5393 1533,5380C1410,5321 1211,5309 1055,5351Z" style="fill:rgb(89,110,126);fill-rule:nonzero;"/>
            </g>
            <g transform="matrix(0.0930996,0,0,0.0930996,1371.61,-194.445)">
                <path d="M2730,5211C2692,5216 2597,5247 2503,5284C2286,5370 2139,5396 2021,5368C1944,5351 1965,5367 2056,5395C2176,5432 2281,5432 2445,5393C2550,5368 2583,5364 2710,5365C2838,5366 2869,5370 2980,5398C3156,5443 3212,5447 3296,5421C3356,5402 3506,5324 3535,5297C3541,5291 3522,5290 3480,5294C3405,5301 3262,5281 3130,5244C2983,5203 2858,5192 2730,5211Z" style="fill:rgb(89,110,126);fill-rule:nonzero;"/>
            </g>
            <g transform="matrix(0.0930996,0,0,0.101482,1371.61,-209.561)">
                <path d="M1345,5024C1266,5037 1133,5075 1117,5090C1107,5099 1197,5172 1276,5220L1331,5253L1418,5232C1609,5186 1748,5194 1940,5261C2131,5329 2181,5341 2286,5347C2406,5354 2551,5338 2680,5305C2972,5229 3063,5203 3054,5198C3049,5195 2996,5179 2935,5164C2776,5123 2631,5124 2424,5168C2341,5186 2251,5200 2224,5200C2132,5199 2025,5172 1886,5116C1655,5021 1512,4996 1345,5024Z" style="fill:rgb(89,110,126);fill-rule:nonzero;"/>
            </g>
            <g transform="matrix(0.0650562,0,0,0.109557,1412.74,271.336)">
                <path d="M1875.7,414.143C1743.87,409.919 1496.31,497.734 1496.31,504.734C1496.31,513.734 1625,564 1710,584C1832,611 2050.07,634.943 2200.07,628.943C2361.07,621.943 2792.51,566.412 2792.51,566.412L2692.51,548.412C2637.51,539.412 2545.51,517.412 2487.51,500.412C2429.51,482.412 2351.51,461.412 2312.51,453.412C2213.51,431.412 1963.7,397.143 1875.7,414.143Z" style="fill:rgb(89,110,126);fill-rule:nonzero;"/>
            </g>
        </g>
        <g transform="matrix(0.1,0,0,0.0935278,1353.4,-430.895)">
            <path d="M2215,5851C1996,5895 1806,6077 1755,6292C1737,6371 1736,6517 1753,6591C1761,6621 1786,6691 1810,6746C1845,6825 1854,6857 1854,6901C1854,6975 1835,7026 1790,7075C1769,7098 1750,7126 1746,7138C1736,7170 1685,7209 1644,7217C1621,7221 1595,7218 1569,7208C1521,7189 1519,7199 1565,7239C1607,7277 1650,7290 1755,7297L1835,7303L1883,7255C1910,7228 1950,7175 1972,7138C1994,7100 2014,7072 2016,7074C2025,7082 1982,7191 1950,7243L1919,7293L1957,7287C2018,7276 2174,7229 2186,7217C2192,7211 2203,7186 2211,7161L2225,7116L2228,7164C2231,7205 2234,7212 2248,7206C2257,7202 2302,7192 2347,7183C2427,7168 2429,7166 2433,7137L2436,7106L2449,7138C2461,7168 2466,7171 2503,7171C2526,7171 2576,7178 2615,7186C2653,7194 2686,7201 2686,7201C2687,7201 2677,7174 2663,7140C2638,7077 2637,7051 2663,7093C2740,7219 2740,7220 2798,7242C2949,7298 3058,7302 3210,7255C3283,7233 3299,7224 3320,7194C3422,7045 3387,6850 3246,6785C3116,6724 2991,6789 2982,6923C2978,6978 2979,6982 3013,7016C3055,7058 3096,7062 3136,7028C3172,6997 3164,6969 3122,6977C3088,6984 3075,6971 3084,6937C3095,6891 3165,6884 3199,6925C3221,6951 3224,7015 3205,7055C3137,7199 2904,7169 2824,7006C2801,6958 2798,6942 2802,6888C2805,6850 2817,6806 2832,6776C2870,6700 2899,6609 2912,6524C2931,6395 2899,6241 2828,6123C2787,6056 2671,5945 2603,5908C2498,5852 2333,5828 2215,5851ZM2117,6592C2157,6607 2199,6649 2221,6696C2270,6802 2212,6929 2100,6962C1977,6999 1853,6858 1889,6724C1917,6622 2027,6558 2117,6592ZM2686,6612C2772,6665 2799,6789 2744,6878C2651,7027 2437,6973 2422,6797C2409,6633 2555,6531 2686,6612ZM2918,7162C2929,7162 2930,7164 2923,7168C2908,7174 2852,7141 2824,7110C2814,7098 2827,7104 2853,7124C2880,7145 2909,7161 2918,7162ZM1830,7126C1817,7140 1800,7151 1791,7151C1783,7151 1791,7140 1810,7126C1829,7112 1846,7101 1849,7101C1851,7101 1843,7112 1830,7126Z" style="fill:rgb(27,169,143);fill-rule:nonzero;"/>
        </g>
        <g transform="matrix(0.1,0,0,0.0935278,1353.4,-340.266)">
            <path d="M1465,5924C1377,5955 1320,6036 1312,6143C1308,6196 1311,6213 1321,6216C1411,6245 1504,6271 1507,6268C1510,6266 1504,6252 1494,6237C1469,6198 1470,6121 1496,6085C1519,6054 1539,6047 1576,6056C1630,6070 1627,6135 1571,6130C1553,6128 1545,6132 1542,6145C1536,6176 1569,6202 1613,6202C1669,6202 1720,6151 1720,6094C1720,6071 1715,6041 1709,6025C1676,5938 1561,5891 1465,5924Z" style="fill:rgb(27,169,143);fill-rule:nonzero;"/>
        </g>
        <g transform="matrix(0.1,0,0,0.0935278,1353.4,-394.512)">
            <path d="M2025,6246C1966,6272 1934,6335 1946,6400C1952,6430 1955,6432 1980,6427C2017,6419 2039,6445 2021,6474C2004,6501 2020,6512 2074,6512C2105,6512 2119,6505 2151,6473C2187,6437 2190,6430 2190,6378C2190,6326 2180,6308 2165,6332C2155,6348 2130,6324 2130,6300C2130,6286 2135,6282 2145,6286C2168,6295 2163,6274 2137,6257C2103,6235 2059,6230 2025,6246Z" style="fill:rgb(26,46,62);fill-rule:nonzero;"/>
        </g>
        <g transform="matrix(0.1,0,0,0.0935278,1353.4,-391.052)">
            <path d="M2565,6202C2513,6215 2467,6297 2477,6358C2482,6389 2486,6394 2501,6390C2512,6386 2529,6387 2541,6390C2558,6396 2561,6403 2556,6426C2552,6448 2555,6457 2570,6465C2655,6511 2767,6383 2719,6294C2709,6274 2708,6274 2695,6291C2684,6307 2680,6307 2666,6296C2645,6278 2646,6248 2668,6236C2683,6228 2680,6224 2648,6211C2610,6195 2600,6194 2565,6202Z" style="fill:rgb(26,46,62);fill-rule:nonzero;"/>
        </g>
        <g transform="matrix(0.162948,0,0,2.54972,1714.56,-442.738)">
            <rect x="424.076" y="306.044" width="802.931" height="2.39" style="fill:rgb(27,169,143);"/>
        </g>
        <g transform="matrix(0.176333,0,0,2.54972,2370.24,-442.738)">
            <rect x="424.076" y="306.044" width="802.931" height="2.39" style="fill:rgb(27,169,143);"/>
        </g>
        <g transform="matrix(-0.0942103,0.0313622,0.0335325,0.0881127,1801.48,-122.831)">
            <path d="M2712.39,2479.58C2722.89,2482.21 2728.79,2492.85 2731.06,2511.15C2733.06,2531.67 2728.47,2539.67 2712.39,2542.2C2683.73,2548.16 2675.54,2534.09 2686.61,2502.56C2692.88,2484.4 2700.96,2477.28 2712.39,2479.58Z" style="fill:rgb(221,221,221);fill-rule:nonzero;"/>
        </g>
        <g transform="matrix(21.4783,0,0,21.4783,-8407.07,-941.044)">
            <path d="M476.998,52.421L478.102,52.421C478.326,52.421 478.53,52.393 478.714,52.337C478.898,52.281 479.056,52.183 479.188,52.043C479.32,51.903 479.422,51.713 479.494,51.473C479.566,51.233 479.602,50.929 479.602,50.561C479.602,50.145 479.548,49.811 479.44,49.559C479.332,49.307 479.192,49.117 479.02,48.989C478.848,48.861 478.656,48.777 478.444,48.737C478.232,48.697 478.022,48.677 477.814,48.677C477.67,48.677 477.524,48.679 477.376,48.683C477.228,48.687 477.102,48.697 476.998,48.713L476.998,52.421ZM476.998,56.921C477.094,56.929 477.2,56.939 477.316,56.951C477.432,56.963 477.598,56.969 477.814,56.969C478.19,56.969 478.512,56.933 478.78,56.861C479.048,56.789 479.268,56.663 479.44,56.483C479.612,56.303 479.738,56.065 479.818,55.769C479.898,55.473 479.938,55.101 479.938,54.653C479.938,54.013 479.802,53.509 479.53,53.141C479.258,52.773 478.854,52.589 478.318,52.589L476.998,52.589L476.998,56.921ZM474.466,56.921L475.798,56.921L475.798,48.713L474.466,48.713L474.466,48.545L476.566,48.545C476.686,48.545 476.808,48.543 476.932,48.539C477.056,48.535 477.182,48.529 477.31,48.521C477.438,48.521 477.562,48.519 477.682,48.515C477.802,48.511 477.918,48.509 478.03,48.509C478.614,48.509 479.094,48.579 479.47,48.719C479.846,48.859 480.142,49.031 480.358,49.235C480.574,49.439 480.722,49.659 480.802,49.895C480.882,50.131 480.922,50.345 480.922,50.537C480.922,50.801 480.864,51.045 480.748,51.269C480.632,51.493 480.476,51.689 480.28,51.857C480.084,52.025 479.858,52.161 479.602,52.265C479.346,52.369 479.078,52.437 478.798,52.469L478.798,52.493C479.086,52.517 479.38,52.579 479.68,52.679C479.98,52.779 480.252,52.919 480.496,53.099C480.74,53.279 480.938,53.501 481.09,53.765C481.242,54.029 481.318,54.333 481.318,54.677C481.318,55.037 481.25,55.367 481.114,55.667C480.978,55.967 480.774,56.225 480.502,56.441C480.23,56.657 479.886,56.827 479.47,56.951C479.054,57.075 478.57,57.137 478.018,57.137C477.906,57.137 477.796,57.135 477.688,57.131C477.58,57.127 477.466,57.121 477.346,57.113C477.226,57.105 477.102,57.099 476.974,57.095C476.846,57.091 476.71,57.089 476.566,57.089L474.466,57.089L474.466,56.921Z" style="fill:rgb(26,46,62);fill-rule:nonzero;"/>
            <path d="M485.746,54.149L485.722,54.149C485.706,54.253 485.574,54.357 485.326,54.461L484.426,54.821C484.17,54.925 483.974,55.071 483.838,55.259C483.702,55.447 483.634,55.681 483.634,55.961C483.634,56.081 483.646,56.205 483.67,56.333C483.694,56.461 483.738,56.575 483.802,56.675C483.866,56.775 483.956,56.857 484.072,56.921C484.188,56.985 484.338,57.017 484.522,57.017C484.786,57.017 485,56.961 485.164,56.849C485.328,56.737 485.452,56.597 485.536,56.429C485.62,56.261 485.676,56.079 485.704,55.883C485.732,55.687 485.746,55.509 485.746,55.349L485.746,54.149ZM487.846,56.957C487.742,57.037 487.618,57.107 487.474,57.167C487.33,57.227 487.154,57.257 486.946,57.257C486.562,57.257 486.284,57.175 486.112,57.011C485.94,56.847 485.822,56.617 485.758,56.321L485.734,56.321C485.702,56.393 485.658,56.483 485.602,56.591C485.546,56.699 485.46,56.803 485.344,56.903C485.228,57.003 485.074,57.087 484.882,57.155C484.69,57.223 484.446,57.257 484.15,57.257C483.814,57.257 483.546,57.219 483.346,57.143C483.146,57.067 482.99,56.973 482.878,56.861C482.766,56.749 482.692,56.623 482.656,56.483C482.62,56.343 482.602,56.213 482.602,56.093C482.602,55.813 482.658,55.589 482.77,55.421C482.882,55.253 483.028,55.119 483.208,55.019C483.388,54.919 483.588,54.837 483.808,54.773C484.028,54.709 484.25,54.641 484.474,54.569C484.738,54.481 484.956,54.405 485.128,54.341C485.3,54.277 485.434,54.199 485.53,54.107C485.626,54.015 485.692,53.899 485.728,53.759C485.764,53.619 485.782,53.429 485.782,53.189C485.782,52.997 485.77,52.825 485.746,52.673C485.722,52.521 485.678,52.391 485.614,52.283C485.55,52.175 485.458,52.093 485.338,52.037C485.218,51.981 485.058,51.953 484.858,51.953C484.594,51.953 484.376,51.999 484.204,52.091C484.032,52.183 483.946,52.333 483.946,52.541C483.946,52.677 483.958,52.811 483.982,52.943C484.006,53.075 484.018,53.173 484.018,53.237C484.018,53.349 483.978,53.443 483.898,53.519C483.818,53.595 483.702,53.633 483.55,53.633C483.286,53.633 483.122,53.585 483.058,53.489C482.994,53.393 482.962,53.269 482.962,53.117C482.962,52.941 483.002,52.773 483.082,52.613C483.162,52.453 483.28,52.311 483.436,52.187C483.592,52.063 483.788,51.965 484.024,51.893C484.26,51.821 484.53,51.785 484.834,51.785C485.202,51.785 485.51,51.831 485.758,51.923C486.006,52.015 486.206,52.139 486.358,52.295C486.51,52.451 486.618,52.627 486.682,52.823C486.746,53.019 486.778,53.225 486.778,53.441L486.778,56.429C486.778,56.661 486.814,56.817 486.886,56.897C486.958,56.977 487.062,57.017 487.198,57.017C487.286,57.017 487.378,57.001 487.474,56.969C487.57,56.937 487.662,56.889 487.75,56.825L487.846,56.957Z" style="fill:rgb(26,46,62);fill-rule:nonzero;"/>
            <path d="M488.206,56.921L489.13,56.921L489.13,52.109L488.206,52.109L488.206,51.941L490.138,51.941L490.138,53.153L490.162,53.153C490.194,53.033 490.246,52.897 490.318,52.745C490.39,52.593 490.49,52.447 490.618,52.307C490.746,52.167 490.9,52.049 491.08,51.953C491.26,51.857 491.478,51.809 491.734,51.809C491.918,51.809 492.078,51.839 492.214,51.899C492.35,51.959 492.462,52.035 492.55,52.127C492.638,52.219 492.702,52.325 492.742,52.445C492.782,52.565 492.802,52.685 492.802,52.805C492.802,53.069 492.742,53.245 492.622,53.333C492.502,53.421 492.362,53.465 492.202,53.465C491.85,53.465 491.674,53.353 491.674,53.129C491.674,53.057 491.682,52.999 491.698,52.955C491.714,52.911 491.732,52.867 491.752,52.823C491.772,52.779 491.79,52.729 491.806,52.673C491.822,52.617 491.83,52.537 491.83,52.433C491.83,52.177 491.69,52.049 491.41,52.049C491.282,52.049 491.146,52.097 491.002,52.193C490.858,52.289 490.724,52.429 490.6,52.613C490.476,52.797 490.372,53.019 490.288,53.279C490.204,53.539 490.162,53.837 490.162,54.173L490.162,56.921L491.206,56.921L491.206,57.089L488.206,57.089L488.206,56.921Z" style="fill:rgb(26,46,62);fill-rule:nonzero;"/>
            <path d="M496.99,53.945C497.006,53.833 497.014,53.729 497.014,53.633L497.014,53.333C497.014,53.061 496.988,52.837 496.936,52.661C496.884,52.485 496.812,52.345 496.72,52.241C496.628,52.137 496.516,52.063 496.384,52.019C496.252,51.975 496.11,51.953 495.958,51.953C495.686,51.953 495.462,52.007 495.286,52.115C495.11,52.223 494.97,52.369 494.866,52.553C494.762,52.737 494.684,52.949 494.632,53.189C494.58,53.429 494.546,53.681 494.53,53.945L496.99,53.945ZM494.518,54.113C494.518,54.193 494.516,54.275 494.512,54.359C494.508,54.443 494.506,54.549 494.506,54.677C494.506,54.941 494.522,55.217 494.554,55.505C494.586,55.793 494.656,56.053 494.764,56.285C494.872,56.517 495.032,56.709 495.244,56.861C495.456,57.013 495.738,57.089 496.09,57.089C496.442,57.089 496.732,57.037 496.96,56.933C497.188,56.829 497.368,56.703 497.5,56.555C497.632,56.407 497.73,56.257 497.794,56.105C497.858,55.953 497.906,55.829 497.938,55.733L498.118,55.769C498.094,55.857 498.048,55.983 497.98,56.147C497.912,56.311 497.804,56.475 497.656,56.639C497.508,56.803 497.308,56.947 497.056,57.071C496.804,57.195 496.478,57.257 496.078,57.257C495.678,57.257 495.308,57.193 494.968,57.065C494.628,56.937 494.334,56.753 494.086,56.513C493.838,56.273 493.646,55.987 493.51,55.655C493.374,55.323 493.306,54.953 493.306,54.545C493.306,54.193 493.376,53.851 493.516,53.519C493.656,53.187 493.848,52.893 494.092,52.637C494.336,52.381 494.622,52.175 494.95,52.019C495.278,51.863 495.63,51.785 496.006,51.785C496.23,51.785 496.47,51.825 496.726,51.905C496.982,51.985 497.22,52.115 497.44,52.295C497.66,52.475 497.844,52.713 497.992,53.009C498.14,53.305 498.214,53.673 498.214,54.113L494.518,54.113Z" style="fill:rgb(26,46,62);fill-rule:nonzero;"/>
            <path d="M499.066,56.921L499.99,56.921L499.99,52.109L499.066,52.109L499.066,51.941L500.998,51.941L500.998,53.225L501.022,53.225C501.07,53.121 501.14,52.989 501.232,52.829C501.324,52.669 501.45,52.513 501.61,52.361C501.77,52.209 501.97,52.079 502.21,51.971C502.45,51.863 502.742,51.809 503.086,51.809C503.614,51.809 504.044,51.937 504.376,52.193C504.708,52.449 504.874,52.857 504.874,53.417L504.874,56.921L505.798,56.921L505.798,57.089L502.918,57.089L502.918,56.921L503.842,56.921L503.842,53.045C503.842,52.733 503.768,52.477 503.62,52.277C503.472,52.077 503.242,51.977 502.93,51.977C502.674,51.977 502.43,52.033 502.198,52.145C501.966,52.257 501.762,52.413 501.586,52.613C501.41,52.813 501.272,53.049 501.172,53.321C501.072,53.593 501.022,53.889 501.022,54.209L501.022,56.921L501.946,56.921L501.946,57.089L499.066,57.089L499.066,56.921Z" style="fill:rgb(26,46,62);fill-rule:nonzero;"/>
            <path d="M509.734,54.149L509.71,54.149C509.694,54.253 509.562,54.357 509.314,54.461L508.414,54.821C508.158,54.925 507.962,55.071 507.826,55.259C507.69,55.447 507.622,55.681 507.622,55.961C507.622,56.081 507.634,56.205 507.658,56.333C507.682,56.461 507.726,56.575 507.79,56.675C507.854,56.775 507.944,56.857 508.06,56.921C508.176,56.985 508.326,57.017 508.51,57.017C508.774,57.017 508.988,56.961 509.152,56.849C509.316,56.737 509.44,56.597 509.524,56.429C509.608,56.261 509.664,56.079 509.692,55.883C509.72,55.687 509.734,55.509 509.734,55.349L509.734,54.149ZM511.834,56.957C511.73,57.037 511.606,57.107 511.462,57.167C511.318,57.227 511.142,57.257 510.934,57.257C510.55,57.257 510.272,57.175 510.1,57.011C509.928,56.847 509.81,56.617 509.746,56.321L509.722,56.321C509.69,56.393 509.646,56.483 509.59,56.591C509.534,56.699 509.448,56.803 509.332,56.903C509.216,57.003 509.062,57.087 508.87,57.155C508.678,57.223 508.434,57.257 508.138,57.257C507.802,57.257 507.534,57.219 507.334,57.143C507.134,57.067 506.978,56.973 506.866,56.861C506.754,56.749 506.68,56.623 506.644,56.483C506.608,56.343 506.59,56.213 506.59,56.093C506.59,55.813 506.646,55.589 506.758,55.421C506.87,55.253 507.016,55.119 507.196,55.019C507.376,54.919 507.576,54.837 507.796,54.773C508.016,54.709 508.238,54.641 508.462,54.569C508.726,54.481 508.944,54.405 509.116,54.341C509.288,54.277 509.422,54.199 509.518,54.107C509.614,54.015 509.68,53.899 509.716,53.759C509.752,53.619 509.77,53.429 509.77,53.189C509.77,52.997 509.758,52.825 509.734,52.673C509.71,52.521 509.666,52.391 509.602,52.283C509.538,52.175 509.446,52.093 509.326,52.037C509.206,51.981 509.046,51.953 508.846,51.953C508.582,51.953 508.364,51.999 508.192,52.091C508.02,52.183 507.934,52.333 507.934,52.541C507.934,52.677 507.946,52.811 507.97,52.943C507.994,53.075 508.006,53.173 508.006,53.237C508.006,53.349 507.966,53.443 507.886,53.519C507.806,53.595 507.69,53.633 507.538,53.633C507.274,53.633 507.11,53.585 507.046,53.489C506.982,53.393 506.95,53.269 506.95,53.117C506.95,52.941 506.99,52.773 507.07,52.613C507.15,52.453 507.268,52.311 507.424,52.187C507.58,52.063 507.776,51.965 508.012,51.893C508.248,51.821 508.518,51.785 508.822,51.785C509.19,51.785 509.498,51.831 509.746,51.923C509.994,52.015 510.194,52.139 510.346,52.295C510.498,52.451 510.606,52.627 510.67,52.823C510.734,53.019 510.766,53.225 510.766,53.441L510.766,56.429C510.766,56.661 510.802,56.817 510.874,56.897C510.946,56.977 511.05,57.017 511.186,57.017C511.274,57.017 511.366,57.001 511.462,56.969C511.558,56.937 511.65,56.889 511.738,56.825L511.834,56.957Z" style="fill:rgb(26,46,62);fill-rule:nonzero;"/>
        </g>
        <g transform="matrix(66.8717,0,0,66.8717,-29761,-3468.68)">
            <path d="M474.35,56.85C474.35,56.842 474.348,56.84 474.341,56.84L474.194,56.84L474.194,56.801C474.194,56.793 474.195,56.79 474.201,56.784L474.213,56.772C474.22,56.766 474.222,56.765 474.232,56.765L474.281,56.765L474.281,56.732L474.227,56.732C474.208,56.732 474.199,56.735 474.188,56.747L474.174,56.76C474.16,56.774 474.158,56.779 474.158,56.802L474.158,56.84L474.116,56.84L474.116,56.87L474.158,56.87L474.158,57.089L474.194,57.089L474.194,56.87L474.315,56.87L474.315,57.089L474.35,57.089L474.35,56.85ZM474.31,56.791C474.31,56.796 474.312,56.798 474.318,56.798L474.342,56.798C474.347,56.798 474.349,56.796 474.349,56.791L474.349,56.764C474.349,56.758 474.347,56.756 474.342,56.756L474.31,56.756L474.31,56.791Z" style="fill:rgb(89,110,126);fill-rule:nonzero;"/>
            <path d="M474.466,56.744C474.466,56.737 474.464,56.735 474.458,56.735L474.393,56.735L474.393,56.765L474.431,56.765L474.431,57.089L474.466,57.089L474.466,56.744Z" style="fill:rgb(89,110,126);fill-rule:nonzero;"/>
            <path d="M474.627,57.059C474.617,57.059 474.615,57.058 474.608,57.052L474.596,57.04C474.59,57.034 474.589,57.031 474.589,57.023L474.589,56.87L474.671,56.87L474.671,56.84L474.589,56.84L474.589,56.776L474.553,56.776L474.553,56.84L474.511,56.84L474.511,56.87L474.553,56.87L474.553,57.022C474.553,57.045 474.555,57.05 474.569,57.064L474.582,57.077C474.594,57.088 474.602,57.092 474.622,57.092L474.676,57.092L474.676,57.059L474.627,57.059Z" style="fill:rgb(89,110,126);fill-rule:nonzero;"/>
            <path d="M474.925,56.98C474.935,56.98 474.941,56.975 474.941,56.963L474.941,56.908C474.941,56.884 474.939,56.879 474.925,56.866L474.912,56.852C474.901,56.841 474.892,56.837 474.872,56.837L474.796,56.837C474.776,56.837 474.767,56.841 474.756,56.852L474.743,56.866C474.729,56.879 474.727,56.884 474.727,56.908L474.727,57.022C474.727,57.045 474.729,57.05 474.743,57.064L474.756,57.077C474.767,57.088 474.776,57.092 474.796,57.092L474.871,57.092C474.889,57.092 474.896,57.09 474.909,57.083L474.937,57.065L474.923,57.041L474.891,57.056C474.884,57.059 474.879,57.06 474.869,57.06L474.801,57.06C474.79,57.06 474.788,57.06 474.782,57.053L474.77,57.041C474.764,57.035 474.762,57.032 474.762,57.024L474.762,56.98L474.925,56.98ZM474.762,56.905C474.762,56.897 474.764,56.894 474.77,56.888L474.782,56.876C474.788,56.87 474.79,56.869 474.801,56.869L474.867,56.869C474.877,56.869 474.88,56.87 474.886,56.876L474.898,56.888C474.904,56.894 474.906,56.897 474.906,56.905L474.906,56.95L474.762,56.95L474.762,56.905Z" style="fill:rgb(89,110,126);fill-rule:nonzero;"/>
            <path d="M475.073,56.837C475.053,56.837 475.044,56.841 475.033,56.852L475.02,56.866C475.006,56.879 475.004,56.884 475.004,56.908L475.004,57.089L475.039,57.089L475.039,56.906C475.039,56.898 475.041,56.895 475.047,56.889L475.059,56.877C475.065,56.871 475.067,56.87 475.078,56.87L475.137,56.87L475.137,56.837L475.073,56.837Z" style="fill:rgb(89,110,126);fill-rule:nonzero;"/>
            <path d="M475.38,56.837C475.361,56.837 475.352,56.841 475.341,56.852L475.328,56.866C475.314,56.879 475.312,56.884 475.312,56.908L475.312,57.089L475.347,57.089L475.347,56.906C475.347,56.898 475.349,56.895 475.355,56.889L475.367,56.877C475.373,56.871 475.375,56.87 475.386,56.87L475.445,56.87L475.445,56.837L475.38,56.837Z" style="fill:rgb(89,110,126);fill-rule:nonzero;"/>
            <path d="M475.686,56.98C475.695,56.98 475.702,56.975 475.702,56.963L475.702,56.908C475.702,56.884 475.699,56.879 475.686,56.866L475.672,56.852C475.661,56.841 475.652,56.837 475.633,56.837L475.556,56.837C475.537,56.837 475.528,56.841 475.517,56.852L475.503,56.866C475.489,56.879 475.487,56.884 475.487,56.908L475.487,57.022C475.487,57.045 475.489,57.05 475.503,57.064L475.517,57.077C475.528,57.088 475.537,57.092 475.556,57.092L475.632,57.092C475.65,57.092 475.657,57.09 475.669,57.083L475.698,57.065L475.684,57.041L475.652,57.056C475.645,57.059 475.639,57.06 475.63,57.06L475.561,57.06C475.551,57.06 475.549,57.06 475.542,57.053L475.53,57.041C475.524,57.035 475.523,57.032 475.523,57.024L475.523,56.98L475.686,56.98ZM475.523,56.905C475.523,56.897 475.524,56.894 475.53,56.888L475.542,56.876C475.549,56.87 475.551,56.869 475.561,56.869L475.628,56.869C475.638,56.869 475.64,56.87 475.647,56.876L475.658,56.888C475.665,56.894 475.667,56.897 475.667,56.905L475.667,56.95L475.523,56.95L475.523,56.905Z" style="fill:rgb(89,110,126);fill-rule:nonzero;"/>
            <path d="M475.976,56.908C475.976,56.884 475.974,56.879 475.96,56.866L475.947,56.852C475.936,56.841 475.927,56.837 475.907,56.837L475.837,56.837C475.819,56.837 475.812,56.839 475.8,56.847L475.771,56.864L475.786,56.889L475.818,56.873C475.825,56.87 475.83,56.869 475.839,56.869L475.902,56.869C475.913,56.869 475.915,56.87 475.921,56.876L475.933,56.888C475.939,56.894 475.941,56.897 475.941,56.905L475.941,56.942L475.919,56.936C475.91,56.934 475.903,56.933 475.893,56.933L475.827,56.933C475.808,56.933 475.799,56.936 475.788,56.947L475.774,56.961C475.76,56.975 475.758,56.98 475.758,57.003L475.758,57.022C475.758,57.045 475.76,57.05 475.774,57.064L475.788,57.077C475.799,57.088 475.808,57.092 475.827,57.092L475.908,57.092C475.921,57.092 475.926,57.091 475.938,57.086L475.963,57.076C475.973,57.072 475.976,57.066 475.976,57.056L475.976,56.908ZM475.832,57.06C475.821,57.06 475.819,57.059 475.813,57.053L475.801,57.042C475.795,57.036 475.794,57.032 475.794,57.024L475.794,57C475.794,56.992 475.795,56.989 475.801,56.983L475.813,56.972C475.819,56.965 475.822,56.964 475.832,56.964L475.892,56.964C475.899,56.964 475.904,56.965 475.91,56.966L475.936,56.974C475.939,56.975 475.941,56.976 475.941,56.98L475.941,57.045C475.941,57.047 475.94,57.048 475.938,57.049L475.916,57.058C475.911,57.06 475.909,57.06 475.905,57.06L475.832,57.06Z" style="fill:rgb(89,110,126);fill-rule:nonzero;"/>
            <path d="M476.187,57.092C476.199,57.092 476.204,57.091 476.216,57.086L476.242,57.076C476.252,57.072 476.255,57.066 476.255,57.056L476.255,56.735L476.219,56.735L476.219,56.851L476.202,56.844C476.191,56.839 476.183,56.837 476.171,56.837L476.105,56.837C476.086,56.837 476.077,56.841 476.066,56.852L476.052,56.866C476.039,56.879 476.036,56.884 476.036,56.908L476.036,57.022C476.036,57.045 476.039,57.05 476.052,57.064L476.066,57.077C476.077,57.088 476.086,57.092 476.105,57.092L476.187,57.092ZM476.219,57.044C476.219,57.046 476.218,57.047 476.216,57.048L476.193,57.058C476.191,57.059 476.188,57.059 476.184,57.059L476.11,57.059C476.1,57.059 476.098,57.058 476.091,57.052L476.079,57.04C476.073,57.034 476.072,57.031 476.072,57.023L476.072,56.906C476.072,56.898 476.073,56.895 476.079,56.889L476.091,56.877C476.098,56.871 476.1,56.87 476.11,56.87L476.174,56.87C476.177,56.87 476.18,56.871 476.182,56.872L476.216,56.886C476.218,56.887 476.219,56.888 476.219,56.891L476.219,57.044Z" style="fill:rgb(89,110,126);fill-rule:nonzero;"/>
            <path d="M476.459,56.986C476.473,56.987 476.477,56.992 476.477,57.005L476.477,57.023C476.477,57.031 476.475,57.035 476.469,57.041L476.457,57.053C476.45,57.059 476.448,57.06 476.438,57.06L476.38,57.06C476.371,57.06 476.366,57.06 476.359,57.057L476.324,57.04L476.31,57.065L476.339,57.083C476.351,57.09 476.359,57.092 476.377,57.092L476.443,57.092C476.462,57.092 476.471,57.088 476.482,57.077L476.495,57.064C476.509,57.05 476.511,57.045 476.511,57.022L476.511,57.005C476.511,56.988 476.508,56.976 476.499,56.967C476.491,56.959 476.48,56.955 476.461,56.953L476.367,56.944C476.352,56.943 476.349,56.938 476.349,56.925L476.349,56.906C476.349,56.898 476.35,56.895 476.357,56.889L476.369,56.876C476.375,56.87 476.378,56.869 476.388,56.869L476.432,56.869C476.442,56.869 476.447,56.87 476.454,56.873L476.489,56.889L476.503,56.864L476.474,56.847C476.462,56.839 476.454,56.837 476.436,56.837L476.384,56.837C476.364,56.837 476.356,56.841 476.344,56.852L476.33,56.866C476.317,56.879 476.315,56.886 476.315,56.906L476.315,56.923C476.315,56.943 476.319,56.956 476.328,56.964C476.336,56.972 476.348,56.976 476.364,56.977L476.459,56.986Z" style="fill:rgb(89,110,126);fill-rule:nonzero;"/>
            <path d="M476.877,57.044C476.877,57.046 476.876,57.047 476.874,57.048L476.851,57.058C476.849,57.059 476.846,57.059 476.843,57.059L476.771,57.059C476.761,57.059 476.759,57.058 476.752,57.052L476.741,57.04C476.735,57.034 476.733,57.031 476.733,57.023L476.733,56.84L476.698,56.84L476.698,57.022C476.698,57.045 476.7,57.05 476.714,57.064L476.727,57.077C476.738,57.088 476.747,57.092 476.766,57.092L476.845,57.092C476.857,57.092 476.863,57.091 476.874,57.086L476.9,57.076C476.91,57.072 476.913,57.066 476.913,57.056L476.913,56.84L476.877,56.84L476.877,57.044Z" style="fill:rgb(89,110,126);fill-rule:nonzero;"/>
            <path d="M477.117,56.986C477.131,56.987 477.134,56.992 477.134,57.005L477.134,57.023C477.134,57.031 477.133,57.035 477.127,57.041L477.115,57.053C477.108,57.059 477.106,57.06 477.096,57.06L477.038,57.06C477.028,57.06 477.023,57.06 477.016,57.057L476.981,57.04L476.968,57.065L476.996,57.083C477.009,57.09 477.017,57.092 477.035,57.092L477.1,57.092C477.12,57.092 477.128,57.088 477.14,57.077L477.153,57.064C477.167,57.05 477.169,57.045 477.169,57.022L477.169,57.005C477.169,56.988 477.165,56.976 477.157,56.967C477.149,56.959 477.138,56.955 477.118,56.953L477.024,56.944C477.01,56.943 477.006,56.938 477.006,56.925L477.006,56.906C477.006,56.898 477.008,56.895 477.014,56.889L477.026,56.876C477.033,56.87 477.035,56.869 477.045,56.869L477.09,56.869C477.099,56.869 477.104,56.87 477.111,56.873L477.146,56.889L477.16,56.864L477.131,56.847C477.119,56.839 477.111,56.837 477.094,56.837L477.041,56.837C477.022,56.837 477.013,56.841 477.001,56.852L476.988,56.866C476.974,56.879 476.972,56.886 476.972,56.906L476.972,56.923C476.972,56.943 476.977,56.956 476.985,56.964C476.994,56.972 477.006,56.976 477.022,56.977L477.117,56.986Z" style="fill:rgb(89,110,126);fill-rule:nonzero;"/>
            <path d="M477.279,56.85C477.279,56.842 477.277,56.84 477.271,56.84L477.206,56.84L477.206,56.87L477.244,56.87L477.244,57.089L477.279,57.089L477.279,56.85ZM477.239,56.791C477.239,56.796 477.242,56.798 477.247,56.798L477.271,56.798C477.277,56.798 477.279,56.796 477.279,56.791L477.279,56.764C477.279,56.758 477.277,56.756 477.271,56.756L477.239,56.756L477.239,56.791Z" style="fill:rgb(89,110,126);fill-rule:nonzero;"/>
            <path d="M477.385,56.885C477.385,56.883 477.386,56.882 477.389,56.881L477.412,56.872C477.414,56.871 477.417,56.87 477.42,56.87L477.493,56.87C477.503,56.87 477.505,56.871 477.512,56.877L477.524,56.889C477.53,56.895 477.531,56.898 477.531,56.906L477.531,57.089L477.567,57.089L477.567,56.908C477.567,56.884 477.565,56.879 477.551,56.866L477.538,56.852C477.526,56.841 477.518,56.837 477.498,56.837L477.418,56.837C477.405,56.837 477.4,56.838 477.389,56.843L477.363,56.853C477.353,56.857 477.35,56.863 477.35,56.873L477.35,57.089L477.385,57.089L477.385,56.885Z" style="fill:rgb(89,110,126);fill-rule:nonzero;"/>
            <path d="M477.654,57.132C477.654,57.127 477.655,57.121 477.657,57.114L477.666,57.091L477.638,57.081L477.629,57.097C477.623,57.109 477.618,57.121 477.618,57.133C477.618,57.15 477.623,57.161 477.635,57.173L477.646,57.184C477.657,57.195 477.665,57.197 477.682,57.197L477.795,57.197C477.813,57.197 477.82,57.195 477.832,57.184L477.843,57.172C477.857,57.158 477.858,57.153 477.858,57.133L477.858,57.107C477.858,57.093 477.856,57.088 477.848,57.078L477.815,57.034L477.822,57.026C477.836,57.013 477.837,57.008 477.837,56.987L477.837,56.902C477.837,56.881 477.836,56.876 477.822,56.863L477.811,56.852L477.825,56.807L477.798,56.797L477.775,56.837L477.697,56.837C477.68,56.837 477.672,56.84 477.661,56.851L477.649,56.863C477.636,56.876 477.634,56.881 477.634,56.902L477.634,56.987C477.634,57.008 477.636,57.013 477.649,57.026L477.661,57.038C477.672,57.049 477.68,57.052 477.697,57.052L477.776,57.052C477.779,57.052 477.786,57.051 477.787,57.051L477.819,57.093C477.822,57.098 477.823,57.1 477.823,57.107L477.823,57.134C477.823,57.141 477.821,57.144 477.816,57.149L477.806,57.159C477.802,57.164 477.798,57.166 477.791,57.166L477.687,57.166C477.679,57.166 477.676,57.164 477.671,57.159L477.661,57.149C477.656,57.144 477.654,57.139 477.654,57.132ZM477.67,56.901C477.67,56.895 477.671,56.891 477.676,56.886L477.686,56.876C477.691,56.872 477.694,56.87 477.702,56.87L477.77,56.87C477.777,56.87 477.781,56.872 477.785,56.876L477.795,56.886C477.8,56.891 477.802,56.895 477.802,56.901L477.802,56.988C477.802,56.995 477.8,56.998 477.795,57.003L477.785,57.013C477.781,57.018 477.777,57.02 477.77,57.02L477.702,57.02C477.694,57.02 477.691,57.018 477.686,57.013L477.676,57.003C477.671,56.998 477.67,56.995 477.67,56.988L477.67,56.901Z" style="fill:rgb(89,110,126);fill-rule:nonzero;"/>
            <path d="M478.174,56.936C478.167,56.942 478.165,56.943 478.155,56.943L478.073,56.943L478.073,56.735L478.037,56.735L478.037,57.089L478.073,57.089L478.073,56.975L478.164,56.975L478.203,57.089L478.239,57.089L478.196,56.965L478.215,56.946C478.228,56.933 478.23,56.927 478.23,56.904L478.23,56.84L478.201,56.84L478.196,56.904C478.196,56.913 478.193,56.917 478.187,56.922L478.174,56.936Z" style="fill:rgb(89,110,126);fill-rule:nonzero;"/>
            <path d="M478.366,56.837C478.346,56.837 478.338,56.841 478.326,56.852L478.313,56.866C478.299,56.879 478.297,56.884 478.297,56.908L478.297,57.089L478.332,57.089L478.332,56.906C478.332,56.898 478.334,56.895 478.34,56.889L478.352,56.877C478.359,56.871 478.361,56.87 478.371,56.87L478.43,56.87L478.43,56.837L478.366,56.837Z" style="fill:rgb(89,110,126);fill-rule:nonzero;"/>
            <path d="M478.688,56.908C478.688,56.884 478.686,56.879 478.672,56.866L478.659,56.852C478.648,56.841 478.639,56.837 478.62,56.837L478.55,56.837C478.532,56.837 478.524,56.839 478.512,56.847L478.483,56.864L478.498,56.889L478.531,56.873C478.537,56.87 478.542,56.869 478.551,56.869L478.615,56.869C478.625,56.869 478.627,56.87 478.634,56.876L478.645,56.888C478.651,56.894 478.653,56.897 478.653,56.905L478.653,56.942L478.631,56.936C478.622,56.934 478.615,56.933 478.605,56.933L478.539,56.933C478.52,56.933 478.511,56.936 478.5,56.947L478.487,56.961C478.473,56.975 478.471,56.98 478.471,57.003L478.471,57.022C478.471,57.045 478.473,57.05 478.487,57.064L478.5,57.077C478.511,57.088 478.52,57.092 478.539,57.092L478.62,57.092C478.633,57.092 478.638,57.091 478.65,57.086L478.676,57.076C478.685,57.072 478.688,57.066 478.688,57.056L478.688,56.908ZM478.544,57.06C478.534,57.06 478.532,57.059 478.525,57.053L478.514,57.042C478.508,57.036 478.506,57.032 478.506,57.024L478.506,57C478.506,56.992 478.508,56.989 478.514,56.983L478.525,56.972C478.531,56.965 478.535,56.964 478.544,56.964L478.604,56.964C478.611,56.964 478.616,56.965 478.622,56.966L478.648,56.974C478.651,56.975 478.653,56.976 478.653,56.98L478.653,57.045C478.653,57.047 478.652,57.048 478.65,57.049L478.628,57.058C478.624,57.06 478.621,57.06 478.617,57.06L478.544,57.06Z" style="fill:rgb(89,110,126);fill-rule:nonzero;"/>
            <path d="M478.891,56.936C478.884,56.942 478.882,56.943 478.872,56.943L478.789,56.943L478.789,56.735L478.754,56.735L478.754,57.089L478.789,57.089L478.789,56.975L478.88,56.975L478.919,57.089L478.955,57.089L478.912,56.965L478.931,56.946C478.945,56.933 478.947,56.927 478.947,56.904L478.947,56.84L478.917,56.84L478.913,56.904C478.912,56.913 478.909,56.917 478.904,56.922L478.891,56.936Z" style="fill:rgb(89,110,126);fill-rule:nonzero;"/>
            <path d="M479.208,56.98C479.217,56.98 479.224,56.975 479.224,56.963L479.224,56.908C479.224,56.884 479.221,56.879 479.208,56.866L479.194,56.852C479.183,56.841 479.174,56.837 479.155,56.837L479.078,56.837C479.059,56.837 479.05,56.841 479.039,56.852L479.025,56.866C479.012,56.879 479.009,56.884 479.009,56.908L479.009,57.022C479.009,57.045 479.012,57.05 479.025,57.064L479.039,57.077C479.05,57.088 479.059,57.092 479.078,57.092L479.154,57.092C479.172,57.092 479.179,57.09 479.191,57.083L479.22,57.065L479.206,57.041L479.174,57.056C479.167,57.059 479.161,57.06 479.152,57.06L479.083,57.06C479.073,57.06 479.071,57.06 479.064,57.053L479.052,57.041C479.046,57.035 479.045,57.032 479.045,57.024L479.045,56.98L479.208,56.98ZM479.045,56.905C479.045,56.897 479.046,56.894 479.052,56.888L479.064,56.876C479.071,56.87 479.073,56.869 479.083,56.869L479.15,56.869C479.16,56.869 479.162,56.87 479.169,56.876L479.181,56.888C479.187,56.894 479.189,56.897 479.189,56.905L479.189,56.95L479.045,56.95L479.045,56.905Z" style="fill:rgb(89,110,126);fill-rule:nonzero;"/>
            <path d="M479.322,56.885C479.322,56.883 479.323,56.882 479.325,56.881L479.348,56.872C479.351,56.871 479.354,56.87 479.357,56.87L479.43,56.87C479.44,56.87 479.442,56.871 479.449,56.877L479.461,56.889C479.467,56.895 479.468,56.898 479.468,56.906L479.468,57.089L479.504,57.089L479.504,56.908C479.504,56.884 479.502,56.879 479.488,56.866L479.474,56.852C479.463,56.841 479.455,56.837 479.435,56.837L479.355,56.837C479.342,56.837 479.337,56.838 479.325,56.843L479.3,56.853C479.29,56.857 479.287,56.863 479.287,56.873L479.287,57.089L479.322,57.089L479.322,56.885Z" style="fill:rgb(89,110,126);fill-rule:nonzero;"/>
            <path d="M479.766,56.837C479.746,56.837 479.738,56.841 479.726,56.852L479.713,56.866C479.699,56.879 479.697,56.884 479.697,56.908L479.697,57.089L479.733,57.089L479.733,56.906C479.733,56.898 479.734,56.895 479.74,56.889L479.752,56.877C479.759,56.871 479.761,56.87 479.771,56.87L479.83,56.87L479.83,56.837L479.766,56.837Z" style="fill:rgb(89,110,126);fill-rule:nonzero;"/>
            <path d="M480.071,56.98C480.081,56.98 480.087,56.975 480.087,56.963L480.087,56.908C480.087,56.884 480.085,56.879 480.071,56.866L480.058,56.852C480.047,56.841 480.038,56.837 480.018,56.837L479.942,56.837C479.922,56.837 479.913,56.841 479.902,56.852L479.889,56.866C479.875,56.879 479.873,56.884 479.873,56.908L479.873,57.022C479.873,57.045 479.875,57.05 479.889,57.064L479.902,57.077C479.913,57.088 479.922,57.092 479.942,57.092L480.017,57.092C480.035,57.092 480.042,57.09 480.055,57.083L480.083,57.065L480.069,57.041L480.037,57.056C480.03,57.059 480.025,57.06 480.015,57.06L479.947,57.06C479.936,57.06 479.934,57.06 479.928,57.053L479.916,57.041C479.91,57.035 479.908,57.032 479.908,57.024L479.908,56.98L480.071,56.98ZM479.908,56.905C479.908,56.897 479.91,56.894 479.916,56.888L479.928,56.876C479.934,56.87 479.936,56.869 479.947,56.869L480.013,56.869C480.024,56.869 480.026,56.87 480.032,56.876L480.044,56.888C480.05,56.894 480.052,56.897 480.052,56.905L480.052,56.95L479.908,56.95L479.908,56.905Z" style="fill:rgb(89,110,126);fill-rule:nonzero;"/>
            <path d="M480.288,56.986C480.302,56.987 480.306,56.992 480.306,57.005L480.306,57.023C480.306,57.031 480.304,57.035 480.298,57.041L480.286,57.053C480.279,57.059 480.277,57.06 480.267,57.06L480.209,57.06C480.2,57.06 480.195,57.06 480.187,57.057L480.153,57.04L480.139,57.065L480.167,57.083C480.18,57.09 480.188,57.092 480.206,57.092L480.271,57.092C480.291,57.092 480.3,57.088 480.311,57.077L480.324,57.064C480.338,57.05 480.34,57.045 480.34,57.022L480.34,57.005C480.34,56.988 480.336,56.976 480.328,56.967C480.32,56.959 480.309,56.955 480.289,56.953L480.196,56.944C480.181,56.943 480.178,56.938 480.178,56.925L480.178,56.906C480.178,56.898 480.179,56.895 480.185,56.889L480.198,56.876C480.204,56.87 480.206,56.869 480.217,56.869L480.261,56.869C480.27,56.869 480.275,56.87 480.283,56.873L480.317,56.889L480.331,56.864L480.303,56.847C480.29,56.839 480.283,56.837 480.265,56.837L480.212,56.837C480.193,56.837 480.184,56.841 480.173,56.852L480.159,56.866C480.145,56.879 480.143,56.886 480.143,56.906L480.143,56.923C480.143,56.943 480.148,56.956 480.157,56.964C480.165,56.972 480.177,56.976 480.193,56.977L480.288,56.986Z" style="fill:rgb(89,110,126);fill-rule:nonzero;"/>
            <path d="M480.578,57.044C480.578,57.046 480.577,57.047 480.575,57.048L480.552,57.058C480.549,57.059 480.546,57.059 480.543,57.059L480.472,57.059C480.462,57.059 480.46,57.058 480.453,57.052L480.441,57.04C480.435,57.034 480.434,57.031 480.434,57.023L480.434,56.84L480.398,56.84L480.398,57.022C480.398,57.045 480.4,57.05 480.414,57.064L480.428,57.077C480.439,57.088 480.448,57.092 480.467,57.092L480.545,57.092C480.558,57.092 480.563,57.091 480.575,57.086L480.601,57.076C480.61,57.072 480.613,57.066 480.613,57.056L480.613,56.84L480.578,56.84L480.578,57.044Z" style="fill:rgb(89,110,126);fill-rule:nonzero;"/>
            <path d="M480.726,56.744C480.726,56.737 480.724,56.735 480.717,56.735L480.652,56.735L480.652,56.765L480.69,56.765L480.69,57.089L480.726,57.089L480.726,56.744Z" style="fill:rgb(89,110,126);fill-rule:nonzero;"/>
            <path d="M480.886,57.059C480.876,57.059 480.874,57.058 480.868,57.052L480.856,57.04C480.85,57.034 480.848,57.031 480.848,57.023L480.848,56.87L480.93,56.87L480.93,56.84L480.848,56.84L480.848,56.776L480.813,56.776L480.813,56.84L480.771,56.84L480.771,56.87L480.813,56.87L480.813,57.022C480.813,57.045 480.815,57.05 480.829,57.064L480.842,57.077C480.853,57.088 480.862,57.092 480.881,57.092L480.936,57.092L480.936,57.059L480.886,57.059Z" style="fill:rgb(89,110,126);fill-rule:nonzero;"/>
            <path d="M481.128,56.986C481.143,56.987 481.146,56.992 481.146,57.005L481.146,57.023C481.146,57.031 481.145,57.035 481.138,57.041L481.126,57.053C481.119,57.059 481.117,57.06 481.107,57.06L481.049,57.06C481.04,57.06 481.035,57.06 481.028,57.057L480.993,57.04L480.979,57.065L481.008,57.083C481.021,57.09 481.028,57.092 481.046,57.092L481.112,57.092C481.131,57.092 481.14,57.088 481.151,57.077L481.165,57.064C481.178,57.05 481.18,57.045 481.18,57.022L481.18,57.005C481.18,56.988 481.177,56.976 481.169,56.967C481.16,56.959 481.149,56.955 481.13,56.953L481.036,56.944C481.022,56.943 481.018,56.938 481.018,56.925L481.018,56.906C481.018,56.898 481.02,56.895 481.026,56.889L481.038,56.876C481.045,56.87 481.047,56.869 481.057,56.869L481.102,56.869C481.111,56.869 481.116,56.87 481.123,56.873L481.158,56.889L481.172,56.864L481.143,56.847C481.131,56.839 481.123,56.837 481.105,56.837L481.053,56.837C481.033,56.837 481.025,56.841 481.013,56.852L481,56.866C480.986,56.879 480.984,56.886 480.984,56.906L480.984,56.923C480.984,56.943 480.988,56.956 480.997,56.964C481.005,56.972 481.018,56.976 481.033,56.977L481.128,56.986Z" style="fill:rgb(89,110,126);fill-rule:nonzero;"/>
        </g>
    </g>
</svg>
